<svg width="100" height="100" viewBox="0 0 100 100" fill="none" xmlns="http://www.w3.org/2000/svg">
<rect x="2.5" y="2.5" width="95" height="95" rx="47.5" fill="white"/>
<rect x="2.5" y="2.5" width="95" height="95" rx="47.5" stroke="black" stroke-width="5"/>
<path d="M38.2292 70.8333L36.6667 69.2708V60.2604H29.1667V56.7188L32.3959 50.9375V45.1042H29.1667V41.9792H47.2917V45.1042H44.0625V50.9375L47.2917 56.7188V60.2604H39.7917V69.2708L38.2292 70.8333ZM50.5729 66.6667V63.5417H67.7084V36.4583H29.1667C29.1667 35.5903 29.4728 34.8524 30.0849 34.2448C30.6967 33.6372 31.4323 33.3333 32.2917 33.3333H67.7084C68.5417 33.3333 69.2709 33.6458 69.8959 34.2708C70.5209 34.8958 70.8334 35.625 70.8334 36.4583V63.5417C70.8334 64.375 70.5209 65.1042 69.8959 65.7292C69.2709 66.3542 68.5417 66.6667 67.7084 66.6667H50.5729ZM32.5 57.1354H43.9063L40.9375 51.8229V45.1042H35.5209V51.8229L32.5 57.1354Z" fill="black"/>
</svg>
